<svg width="324" height="279" viewBox="0 0 324 279" fill="none" xmlns="http://www.w3.org/2000/svg">
<g clip-path="url(#clip0_142_481)">
<path d="M5.64995 286.64C76.8234 160.835 195.058 68.4555 334.343 29.8248L334.684 31.054C195.725 69.5942 77.767 161.757 6.76017 287.268L5.64995 286.64Z" fill="#3BA782"/>
<path d="M2.64995 276.64C73.8234 150.835 192.058 58.4555 331.343 19.8248L331.534 20.5155C192.433 59.0953 74.3536 151.353 3.27377 276.993L2.64995 276.64Z" fill="#3BA782"/>
<path d="M26.6499 307.64C97.8234 181.835 216.058 89.4555 355.343 50.8248L357.13 57.268C219.554 95.4247 102.77 186.671 32.4696 310.933L26.6499 307.64Z" fill="#3BA782"/>
<path d="M160.65 441.64C231.823 315.835 350.058 223.455 489.343 184.825L498.377 217.399C367.732 253.634 256.831 340.283 190.072 458.285L160.65 441.64Z" fill="#3BA782"/>
<path d="M121.65 402.64C192.823 276.835 311.058 184.455 450.343 145.825L460.001 180.649C329.952 216.718 219.558 302.971 153.104 420.435L121.65 402.64Z" fill="#3BA782"/>
<path d="M86.6499 368.64C157.823 242.835 276.058 150.455 415.343 111.825L421.991 135.795C289.063 172.662 176.225 260.825 108.3 380.889L86.6499 368.64Z" fill="#3BA782"/>
<path d="M63.6499 344.64C134.823 218.835 253.058 126.455 392.343 87.8248L396.406 102.474C261.006 140.027 146.069 229.829 76.8811 352.126L63.6499 344.64Z" fill="#3BA782"/>
<path d="M44.6499 324.64C115.823 198.835 234.058 106.455 373.343 67.8248L376.109 77.7991C239.469 115.696 123.481 206.321 53.659 329.737L44.6499 324.64Z" fill="#3BA782"/>
<path d="M13.6499 294.64C84.8234 168.835 203.058 76.4555 342.343 37.8248L343.345 41.4394C205.019 79.8042 87.5983 171.548 16.9147 296.487L13.6499 294.64Z" fill="#3BA782"/>
</g>
<defs>
<clipPath id="clip0_142_481">
<rect width="324" height="279" fill="white"/>
</clipPath>
</defs>
</svg>
